<svg width="63" height="58" viewBox="0 0 63 58" fill="none" xmlns="http://www.w3.org/2000/svg">
<path d="M28.9736 48.1491C28.9736 47.0445 28.0781 46.1491 26.9736 46.1491H10.1199C9.0153 46.1491 8.11987 47.0445 8.11987 48.1491V55.1552C8.11987 56.2598 9.0153 57.1552 10.1199 57.1552H26.9736C28.0781 57.1552 28.9736 56.2598 28.9736 55.1552V48.1491Z" fill="url(#paint0_linear_36_1267)"/>
<path d="M0.91901 10.5622C0.971144 15.092 1.06383 23.196 1.10438 26.7991C1.12133 27.9925 1.42955 29.1638 2.00224 30.211C4.36566 34.5323 10.726 46.1467 10.726 46.1467H26.3663V34.8162C26.3662 33.841 26.1525 32.8777 25.7402 31.9941C25.3278 31.1104 24.7269 30.3278 23.9797 29.7012C21.8712 27.9286 18.8069 25.3567 16.6404 23.5378C15.7483 22.7847 15.0068 22.1707 14.555 21.7884C14.2465 21.5294 14.0478 21.1629 13.9989 20.7631V20.7573C13.7209 18.3302 12.6956 9.44996 12.18 4.99537C12.0995 4.28846 11.759 3.63673 11.2248 3.16677C10.6907 2.69682 10.0009 2.4422 9.28945 2.45238C8.97665 2.45817 8.65805 2.45817 8.35104 2.46397C7.60648 2.47524 6.8957 2.77659 6.36994 3.30391C5.8976 3.76572 5.60238 4.3787 5.53579 5.03592C5.41414 6.15971 5.30408 7.22556 5.30408 7.22556C5.30408 7.22556 4.9681 7.23715 4.48152 7.24873C4.36566 7.25453 4.23822 7.26032 4.10499 7.26032C3.2458 7.27918 2.42887 7.63678 1.83213 8.25522C1.23539 8.87366 0.907189 9.70284 0.91901 10.5622Z" fill="#B8D7FF"/>
<path d="M34.579 48.149C34.579 47.0445 35.4744 46.149 36.579 46.149H53.4327C54.5372 46.149 55.4327 47.0445 55.4327 48.149V55.1552C55.4327 56.2597 54.5373 57.1552 53.4327 57.1552H36.579C35.4744 57.1552 34.579 56.2597 34.579 55.1552V48.149Z" fill="url(#paint1_linear_36_1267)"/>
<path d="M62.6337 10.5622C62.5816 15.0921 62.4889 23.1961 62.4483 26.7991C62.4314 27.9926 62.1232 29.1638 61.5505 30.211C59.1871 34.5324 52.8267 46.1467 52.8267 46.1467H37.1864V34.8162C37.1865 33.8411 37.4002 32.8778 37.8126 31.9941C38.2249 31.1104 38.8258 30.3278 39.573 29.7013C41.6815 27.9287 44.7459 25.3568 46.9123 23.5378C47.8044 22.7848 48.5459 22.1708 48.9977 21.7885C49.3062 21.5294 49.505 21.163 49.5538 20.7631V20.7574C49.8319 18.3302 50.8572 9.45002 51.3727 4.99543C51.4533 4.28852 51.7937 3.63679 52.3279 3.16684C52.8621 2.69688 53.5519 2.44226 54.2633 2.45244C54.5761 2.45823 54.8947 2.45824 55.2017 2.46403C55.9462 2.4753 56.657 2.77665 57.1828 3.30397C57.6551 3.76578 57.9503 4.37876 58.0169 5.03598C58.1386 6.15977 58.2486 7.22562 58.2486 7.22562C58.2486 7.22562 58.5846 7.23721 59.0712 7.24879C59.1871 7.25459 59.3145 7.26038 59.4477 7.26038C60.3069 7.27924 61.1238 7.63684 61.7206 8.25528C62.3173 8.87372 62.6455 9.7029 62.6337 10.5622Z" fill="#B8D7FF"/>
<path d="M31.7623 5.64829C34.8904 -0.738731 41.1413 -0.738732 44.2676 2.02265C47.3939 4.78402 47.3956 10.3062 44.2676 15.829C42.0791 19.9707 36.4521 24.1125 31.7623 26.8739C27.0731 24.1125 21.4455 19.9707 19.2571 15.829C16.129 10.3062 16.129 4.78402 19.2571 2.02265C22.3851 -0.738732 28.636 -0.738731 31.7623 5.64829Z" fill="#CFE3FC"/>
<path d="M33.5674 11.2365C33.5674 11.5126 33.7912 11.7365 34.0674 11.7365H35.8971C36.1732 11.7365 36.3971 11.9603 36.3971 12.2365V14.9038C36.3971 15.18 36.1732 15.4038 35.8971 15.4038H34.0674C33.7912 15.4038 33.5674 15.6277 33.5674 15.9038V17.7046C33.5674 17.9807 33.3435 18.2046 33.0674 18.2046H30.3994C30.1233 18.2046 29.8994 17.9807 29.8994 17.7046V15.9038C29.8994 15.6277 29.6756 15.4038 29.3994 15.4038H27.6288C27.3526 15.4038 27.1288 15.18 27.1288 14.9038V12.2365C27.1288 11.9603 27.3526 11.7365 27.6288 11.7365H29.3994C29.6756 11.7365 29.8994 11.5126 29.8994 11.2365V9.43628C29.8994 9.16014 30.1233 8.93628 30.3994 8.93628H33.0674C33.3435 8.93628 33.5674 9.16014 33.5674 9.43628V11.2365Z" fill="url(#paint2_linear_36_1267)"/>
<defs>
<linearGradient id="paint0_linear_36_1267" x1="18.5467" y1="46.1491" x2="18.5467" y2="57.1552" gradientUnits="userSpaceOnUse">
<stop stop-color="#97C5FF"/>
<stop offset="1" stop-color="#328BFA"/>
</linearGradient>
<linearGradient id="paint1_linear_36_1267" x1="45.0058" y1="46.149" x2="45.0058" y2="57.1552" gradientUnits="userSpaceOnUse">
<stop stop-color="#97C5FF"/>
<stop offset="1" stop-color="#328BFA"/>
</linearGradient>
<linearGradient id="paint2_linear_36_1267" x1="31.7629" y1="18.2045" x2="31.7629" y2="8.93628" gradientUnits="userSpaceOnUse">
<stop stop-color="#062BA1"/>
<stop offset="1" stop-color="#093DE6"/>
</linearGradient>
</defs>
</svg>
