<svg width="65" height="65" viewBox="0 0 65 65" fill="none" xmlns="http://www.w3.org/2000/svg">
<path d="M29.3037 51.5126C29.3037 50.408 28.4082 49.5126 27.3037 49.5126H10.45C9.34541 49.5126 8.44998 50.408 8.44998 51.5126V58.5187C8.44998 59.6233 9.34541 60.5187 10.45 60.5187H27.3037C28.4082 60.5187 29.3037 59.6233 29.3037 58.5187V51.5126Z" fill="url(#paint0_linear_36_1110)"/>
<path d="M1.24911 13.9256C1.30125 18.4555 1.39393 26.5595 1.43448 30.1625C1.45143 31.356 1.75965 32.5272 2.33235 33.5744C4.69577 37.8958 11.0561 49.5101 11.0561 49.5101H26.6964V38.1796C26.6963 37.2045 26.4826 36.2412 26.0703 35.3575C25.658 34.4738 25.0571 33.6912 24.3098 33.0647C22.2013 31.2921 19.137 28.7202 16.9705 26.9013C16.0784 26.1482 15.337 25.5342 14.8851 25.1519C14.5766 24.8928 14.3779 24.5264 14.329 24.1266V24.1208C14.051 21.6936 13.0257 12.8134 12.5101 8.35884C12.4296 7.65193 12.0891 7.00019 11.555 6.53024C11.0208 6.06029 10.331 5.80567 9.61956 5.81585C9.30675 5.82164 8.98815 5.82164 8.68114 5.82743C7.93658 5.8387 7.22581 6.14005 6.70004 6.66737C6.2277 7.12918 5.93249 7.74217 5.86589 8.39939C5.74425 9.52317 5.63418 10.589 5.63418 10.589C5.63418 10.589 5.29821 10.6006 4.81162 10.6122C4.69577 10.618 4.56833 10.6238 4.4351 10.6238C3.57591 10.6426 2.75897 11.0002 2.16223 11.6187C1.5655 12.2371 1.23729 13.0663 1.24911 13.9256Z" fill="url(#paint1_linear_36_1110)"/>
<path d="M34.9091 51.5126C34.9091 50.408 35.8045 49.5126 36.9091 49.5126H53.7628C54.8674 49.5126 55.7628 50.408 55.7628 51.5126V58.5187C55.7628 59.6233 54.8674 60.5187 53.7628 60.5187H36.9091C35.8045 60.5187 34.9091 59.6233 34.9091 58.5187V51.5126Z" fill="url(#paint2_linear_36_1110)"/>
<path d="M62.9638 13.9257C62.9117 18.4556 62.819 26.5596 62.7785 30.1627C62.7615 31.3561 62.4533 32.5274 61.8806 33.5746C59.5172 37.8959 53.1568 49.5103 53.1568 49.5103H37.5165V38.1797C37.5166 37.2046 37.7304 36.2413 38.1427 35.3576C38.555 34.474 39.1559 33.6913 39.9031 33.0648C42.0117 31.2922 45.076 28.7203 47.2425 26.9014C48.1345 26.1483 48.876 25.5343 49.3278 25.152C49.6363 24.893 49.8351 24.5265 49.8839 24.1267V24.1209C50.162 21.6937 51.1873 12.8135 51.7028 8.35896C51.7834 7.65205 52.1238 7.00032 52.658 6.53036C53.1922 6.06041 53.882 5.80579 54.5934 5.81597C54.9062 5.82176 55.2248 5.82176 55.5318 5.82755C56.2764 5.83883 56.9871 6.14018 57.5129 6.66749C57.9852 7.12931 58.2805 7.74229 58.3471 8.39951C58.4687 9.52329 58.5788 10.5891 58.5788 10.5891C58.5788 10.5891 58.9147 10.6007 59.4013 10.6123C59.5172 10.6181 59.6446 10.6239 59.7779 10.6239C60.637 10.6428 61.454 11.0004 62.0507 11.6188C62.6475 12.2372 62.9757 13.0664 62.9638 13.9257Z" fill="url(#paint3_linear_36_1110)"/>
<path d="M32.0924 9.01182C35.2205 2.62479 41.4714 2.62479 44.5977 5.38617C47.724 8.14755 47.7258 13.6697 44.5977 19.1925C42.4092 23.3343 36.7822 27.476 32.0924 30.2374C27.4033 27.476 21.7757 23.3343 19.5872 19.1925C16.4591 13.6697 16.4591 8.14755 19.5872 5.38617C22.7152 2.62479 28.9661 2.62479 32.0924 9.01182Z" fill="#062BA1"/>
<path d="M33.8975 14.6C33.8975 14.8761 34.1213 15.1 34.3975 15.1H36.2272C36.5034 15.1 36.7272 15.3238 36.7272 15.6V18.2673C36.7272 18.5435 36.5034 18.7673 36.2272 18.7673H34.3975C34.1213 18.7673 33.8975 18.9912 33.8975 19.2673V21.0681C33.8975 21.3443 33.6736 21.5681 33.3975 21.5681H30.7296C30.4534 21.5681 30.2296 21.3443 30.2296 21.0681V19.2673C30.2296 18.9912 30.0057 18.7673 29.7296 18.7673H27.9589C27.6828 18.7673 27.4589 18.5435 27.4589 18.2673V15.6C27.4589 15.3238 27.6828 15.1 27.9589 15.1H29.7296C30.0057 15.1 30.2296 14.8761 30.2296 14.6V12.7998C30.2296 12.5237 30.4534 12.2998 30.7296 12.2998H33.3975C33.6736 12.2998 33.8975 12.5237 33.8975 12.7998V14.6Z" fill="#CAE7F7"/>
<defs>
<linearGradient id="paint0_linear_36_1110" x1="18.8768" y1="60.5186" x2="18.8768" y2="49.5126" gradientUnits="userSpaceOnUse">
<stop stop-color="#062BA1"/>
<stop offset="1" stop-color="#093DE6"/>
</linearGradient>
<linearGradient id="paint1_linear_36_1110" x1="13.9726" y1="5.81555" x2="13.9726" y2="49.5101" gradientUnits="userSpaceOnUse">
<stop stop-color="#CFE3FC"/>
<stop offset="1" stop-color="#8EC0FF"/>
</linearGradient>
<linearGradient id="paint2_linear_36_1110" x1="45.336" y1="60.5186" x2="45.336" y2="49.5126" gradientUnits="userSpaceOnUse">
<stop stop-color="#062BA1"/>
<stop offset="1" stop-color="#093DE6"/>
</linearGradient>
<linearGradient id="paint3_linear_36_1110" x1="50.2403" y1="5.81567" x2="50.2403" y2="49.5103" gradientUnits="userSpaceOnUse">
<stop stop-color="#CFE3FC"/>
<stop offset="1" stop-color="#8EC0FF"/>
</linearGradient>
</defs>
</svg>
