<svg width="34" height="71" viewBox="0 0 34 71" fill="none" xmlns="http://www.w3.org/2000/svg">
<path d="M17.2109 70.8873C16.8962 70.8873 16.5943 70.7623 16.3717 70.5397C16.1492 70.3171 16.0241 70.0153 16.0241 69.7005V53.6785C16.0241 53.3637 16.1492 53.0619 16.3717 52.8393C16.5943 52.6167 16.8962 52.4917 17.2109 52.4917C17.5257 52.4917 17.8276 52.6167 18.0501 52.8393C18.2727 53.0619 18.3978 53.3637 18.3978 53.6785V69.7005C18.3978 70.0153 18.2727 70.3171 18.0501 70.5397C17.8276 70.7623 17.5257 70.8873 17.2109 70.8873Z" fill="url(#paint0_linear_36_1068)"/>
<path d="M17.2109 70.8874C16.9204 70.8893 16.6391 70.7852 16.4197 70.5946L9.29885 64.3599C9.18144 64.256 9.08564 64.13 9.01693 63.9891C8.94822 63.8482 8.90794 63.6951 8.89839 63.5386C8.88884 63.3821 8.9102 63.2253 8.96127 63.077C9.01233 62.9288 9.09209 62.7921 9.19599 62.6747C9.29989 62.5572 9.42591 62.4614 9.56683 62.3927C9.70776 62.324 9.86084 62.2837 10.0173 62.2742C10.1738 62.2646 10.3307 62.286 10.4789 62.3371C10.6271 62.3881 10.7639 62.4679 10.8813 62.5718L18.0021 68.8065C18.1848 68.966 18.3143 69.1776 18.3731 69.4129C18.4319 69.6481 18.4172 69.8958 18.331 70.1224C18.2448 70.3491 18.0913 70.5439 17.891 70.6807C17.6908 70.8175 17.4534 70.8896 17.2109 70.8874Z" fill="url(#paint1_linear_36_1068)"/>
<path d="M17.2109 70.8874C16.9684 70.8896 16.7311 70.8175 16.5308 70.6807C16.3306 70.5439 16.177 70.3491 16.0908 70.1224C16.0047 69.8958 15.99 69.6481 16.0488 69.4129C16.1076 69.1776 16.237 68.966 16.4197 68.8065L23.5406 62.5718C23.7777 62.362 24.0885 62.2549 24.4045 62.2742C24.7206 62.2935 25.016 62.4375 25.2259 62.6747C25.4357 62.9118 25.5428 63.2225 25.5235 63.5386C25.5042 63.8546 25.3601 64.1501 25.123 64.3599L18.0021 70.5947C17.7836 70.7865 17.5018 70.8908 17.2109 70.8874Z" fill="url(#paint2_linear_36_1068)"/>
<path d="M12.8593 2.05203H21.5626C22.9787 2.04891 24.3815 2.32513 25.6907 2.8649C27 3.40466 28.1899 4.19736 29.1923 5.1976C30.1948 6.19785 30.9901 7.38599 31.5327 8.69402C32.0754 10.002 32.3547 11.4043 32.3547 12.8204V35.7654C32.3578 37.1836 32.0808 38.5883 31.5395 39.8991C30.9983 41.2099 30.2035 42.4008 29.2007 43.4036C28.198 44.4063 27.007 45.2012 25.6962 45.7424C24.3855 46.2836 22.9807 46.5607 21.5626 46.5575H12.8593C10.0054 46.5575 7.26848 45.4238 5.25051 43.4059C3.23254 41.3879 2.09885 38.6509 2.09885 35.7971V12.8125C2.10094 9.95927 3.2353 7.22352 5.25282 5.206C7.27034 3.18848 10.0061 2.05412 12.8593 2.05203Z" fill="url(#paint3_linear_36_1068)"/>
<path d="M21.5626 47.7523H12.8593C9.69124 47.7481 6.65402 46.4883 4.41312 44.2489C2.17223 42.0094 0.910402 38.9731 0.904123 35.805V12.8125C0.910402 9.64444 2.17223 6.60806 4.41312 4.36864C6.65402 2.12923 9.69124 0.869416 12.8593 0.865234H21.5626C24.7293 0.871507 27.7645 2.13225 30.0036 4.37143C32.2428 6.61062 33.5036 9.64581 33.5098 12.8125V35.805C33.5036 38.9717 32.2428 42.0069 30.0036 44.2461C27.7645 46.4853 24.7293 47.746 21.5626 47.7523ZM12.8593 3.23886C10.3201 3.24095 7.88543 4.25002 6.08922 6.04474C4.29302 7.83947 3.28194 10.2733 3.27775 12.8125V35.805C3.28194 38.3442 4.29302 40.778 6.08922 42.5728C7.88543 44.3675 10.3201 45.3765 12.8593 45.3786H21.5626C24.1004 45.3745 26.533 44.3645 28.3275 42.57C30.122 40.7755 31.132 38.3428 31.1362 35.805V12.8125C31.132 10.2747 30.122 7.84203 28.3275 6.04753C26.533 4.25304 24.1004 3.24305 21.5626 3.23886H12.8593Z" fill="url(#paint4_linear_36_1068)"/>
<path d="M17.2109 20.5743C16.8962 20.5743 16.5943 20.4493 16.3717 20.2267C16.1492 20.0042 16.0241 19.7023 16.0241 19.3875V13.4297C16.0241 13.115 16.1492 12.8131 16.3717 12.5905C16.5943 12.368 16.8962 12.2429 17.2109 12.2429C17.5257 12.2429 17.8276 12.368 18.0501 12.5905C18.2727 12.8131 18.3978 13.115 18.3978 13.4297V19.3875C18.3978 19.7023 18.2727 20.0042 18.0501 20.2267C17.8276 20.4493 17.5257 20.5743 17.2109 20.5743Z" fill="url(#paint5_linear_36_1068)"/>
<defs>
<linearGradient id="paint0_linear_36_1068" x1="17.2109" y1="70.8872" x2="17.2109" y2="52.4917" gradientUnits="userSpaceOnUse">
<stop stop-color="#062BA1"/>
<stop offset="1" stop-color="#093DE6"/>
</linearGradient>
<linearGradient id="paint1_linear_36_1068" x1="13.6523" y1="70.8874" x2="13.6523" y2="62.272" gradientUnits="userSpaceOnUse">
<stop stop-color="#062BA1"/>
<stop offset="1" stop-color="#093DE6"/>
</linearGradient>
<linearGradient id="paint2_linear_36_1068" x1="20.7695" y1="70.8874" x2="20.7695" y2="62.272" gradientUnits="userSpaceOnUse">
<stop stop-color="#062BA1"/>
<stop offset="1" stop-color="#093DE6"/>
</linearGradient>
<linearGradient id="paint3_linear_36_1068" x1="17.2268" y1="2.052" x2="17.2268" y2="46.5575" gradientUnits="userSpaceOnUse">
<stop stop-color="#CFE3FC"/>
<stop offset="1" stop-color="#8EC0FF"/>
</linearGradient>
<linearGradient id="paint4_linear_36_1068" x1="17.207" y1="47.752" x2="17.207" y2="0.865234" gradientUnits="userSpaceOnUse">
<stop stop-color="#062BA1"/>
<stop offset="1" stop-color="#093DE6"/>
</linearGradient>
<linearGradient id="paint5_linear_36_1068" x1="17.2109" y1="20.5743" x2="17.2109" y2="12.2429" gradientUnits="userSpaceOnUse">
<stop stop-color="#062BA1"/>
<stop offset="1" stop-color="#093DE6"/>
</linearGradient>
</defs>
</svg>
